<svg width="36" height="39" viewBox="0 0 36 39" fill="none" xmlns="http://www.w3.org/2000/svg">
<path d="M34.6922 1.84797L27.3799 0.0458647C26.5853 -0.149364 25.7697 0.293655 25.4463 1.08959L22.0714 9.49943C21.7761 10.2353 21.9729 11.0988 22.5565 11.6019L26.8174 15.3262C24.2862 21.0855 19.8636 25.8761 14.3583 28.6318L10.8708 24.0815C10.3927 23.4583 9.59116 23.248 8.90211 23.5634L1.02727 27.1676C0.274946 27.5205 -0.13989 28.3915 0.042919 29.24L1.73038 37.0492C1.90616 37.8601 2.58115 38.4458 3.37566 38.4458C21.3823 38.4458 36 22.8651 36 3.60503C36 2.76405 35.4586 2.03569 34.6922 1.84797Z" fill="#107DA6"/>
</svg>
