<svg width="36" height="39" viewBox="0 0 36 39" fill="none" xmlns="http://www.w3.org/2000/svg">
<path d="M35.318 12.6951C35.5922 12.3848 36 12.6751 36 13.1657V33.6401C36 36.2932 34.4883 38.4458 32.625 38.4458H3.375C1.51172 38.4458 0 36.2932 0 33.6401V13.1757C0 12.6751 0.400781 12.3948 0.682031 12.7051C2.25703 14.4472 4.34531 16.6598 11.5172 24.0787C13.0008 25.6205 15.5039 28.8644 18 28.8444C20.5102 28.8744 23.0625 25.5604 24.4898 24.0787C31.6617 16.6598 33.743 14.4372 35.318 12.6951ZM18 25.6305C19.6313 25.6706 21.9797 22.7071 23.1609 21.4856C32.4914 11.8441 33.2016 11.0031 35.3531 8.60024C35.7609 8.14971 36 7.44887 36 6.70799V4.80573C36 2.15256 34.4883 0 32.625 0H3.375C1.51172 0 0 2.15256 0 4.80573V6.70799C0 7.44887 0.239062 8.1397 0.646875 8.60024C2.79844 10.9931 3.50859 11.8441 12.8391 21.4856C14.0203 22.7071 16.3687 25.6706 18 25.6305Z" fill="#107DA6"/>
</svg>
